{"title":"Mulholland Falls 1996 480p HDRip XviD titler","uid":9692053,"size":1285108139,"categoryP":"video","categoryS":"movies","magnet":"?xt=urn:btih:031dc8305c14c16ce364dc476f22b76fc563ca58&amp;dn=Mulholland+Falls+1996+480p+HDRip+XviD+titler&amp;tr=udp%3A%2F%2Ftracker.openbittorrent.com%3A80&amp;tr=udp%3A%2F%2Fopen.demonii.com%3A1337&amp;tr=udp%3A%2F%2Ftracker.coppersurfer.tk%3A6969&amp;tr=udp%3A%2F%2Fexodus.desync.com%3A6969","seeders":1,"leechers":1,"uploader":"movieZ.freak","files":4,"time":1393883733,"description":"SOURCE: Mulholland Falls 1996 720p HDTV AC3\n\n\n &lt;a href=&quot;\nhttp://www.imdb.com/title/tt0117107/&quot; rel=&quot;nofollow&quot; target=&quot;_NEW&quot;&gt;\nhttp://www.imdb.com/title/tt0117107/&lt;/a&gt;\n\n\n &lt;a href=&quot;\nhttp://en.wikipedia.org/wiki/Mulholland_Falls&quot; rel=&quot;nofollow&quot; target=&quot;_NEW&quot;&gt;\nhttp://en.wikipedia.org/wiki/Mulholland_Falls&lt;/a&gt;\n\n\n\n\n- SAMPLE: Yes\n\n\n- SUBTITLE: English\n\n\n- LANGUAGE / AUDIO: English\n\n\n\n\nSCREENSHOTS:\n-------------------    &lt;a href=&quot;\nhttp://someimage.com/hwyu&quot; rel=&quot;nofollow&quot; target=&quot;_NEW&quot;&gt;\nhttp://someimage.com/hwyu&lt;/a&gt;\n\n\n\n\nDIRECTOR: Lee Tamahori\n\n\nCAST: Nick Nolte, Melanie Griffith, Chazz Palminteri, Michael Madsen, Chris Penn, Treat Williams, Jennifer Connelly, Daniel Baldwin, Andrew McCarthy, Kyle Chandler, Ed Lauter, Bruce Dern, Rob Lowe, William Petersen,...\n\n\nPLOT:\n-----------\nFour men just barely on the right side of the law step into a web of danger and corruption in this drama. In the early 1950s, Max Hoover (Nick Nolte) is a detective with the Los Angeles Police Department who leads what's been dubbed &quot;the hat squad,&quot; a group of sharp-dressed cops who are ordered to stamp out organized crime using any means necessary, with legality and delicacy not much of an issue. Hoover and his partners Ellery Coolidge (Chazz Palminteri), Eddie Hall (Michael Madsen), and Arthur Relyea (Chris Penn) are looking into the brutal murder of a young woman named Allison Pond (Jennifer Connelly). In the course of their investigation, they discover that Allison had a lively sexual history, and she possessed explicit films of herself with her lovers, including Gen. Thomas Timms (John Malkovich), leader of the newly-formed Atomic Energy Commission. Timms becomes a key suspect, and he reveals the first of a long trail of troubling secrets, but Hoover has secrets of his own that he's trying to keep covered in the process, including the fact that he and Allison were once an item. Popular vocalist Aaron Neville has a cameo as a singer at a night spot. \n\n\n************************************\n\n- Duration: 1h 46mn\n\n- Bit rate: 1449 Kbps\n\n- Res: 854 x 462\n\n- AR: 1.85:1\n\n- FPS: 23.976\n\n- Audio: AC3, 2 channels, 128Kbps\n\n************************************\n\n\nGeneral\n-----------\nFormat : AVI\nFormat/Info : Audio Video Interleave\nFile size : 1.18 GiB\nDuration : 1h 46mn\nOverall bit rate : 1586 Kbps\nWriting library : VirtualDub build 35491\n\n\nVideo\n-----------\nFormat : MPEG-4 Visual\nFormat profile : Advanced Simple@L5\nFormat settings, BVOP : 2\nFormat settings, QPel : No\nFormat settings, GMC : No warppoints\nFormat settings, Matrix : Default (H.263)\nCodec ID : XVID\nCodec ID/Hint : XviD\nDuration : 1h 46mn\nBit rate : 1449 Kbps\nWidth : 854 pixels\nHeight : 462 pixels\nDisplay aspect ratio : 1.85:1\nFrame rate : 23.976 fps\nColor space : YUV\nChroma subsampling : 4:2:0\nBit depth : 8 bits\nScan type : Progressive\nCompression mode : Lossy\nBits/(Pixel*Frame) : 0.153\nStream size : 1.08 GiB (91%)\nWriting library : XviD 65\n\n\nAudio\n--------------\nFormat : AC-3\nFormat/Info : Audio Coding 3\nMode extension : CM (complete main)\nFormat settings, Endianness : Big\nCodec ID : 2000\nDuration : 1h 46mn\nBit rate mode : Constant\nBit rate : 128 Kbps\nChannel(s) : 2 channels\nChannel positions : Front: L R\nSampling rate : 48.0 KHz\nBit depth : 16 bits\nCompression mode : Lossy\nStream size : 97.8 MiB (8%)\nAlignment : Aligned on interleaves\nInterleave, duration : 42 ms (1.00 video frame)\nInterleave, preload duration : 512 ms","torrent":{"xt":"urn:btih:031dc8305c14c16ce364dc476f22b76fc563ca58","amp;dn":"Mulholland+Falls+1996+480p+HDRip+XviD+titler","amp;tr":["udp%3A%2F%2Ftracker.openbittorrent.com%3A80","udp%3A%2F%2Fopen.demonii.com%3A1337","udp%3A%2F%2Ftracker.coppersurfer.tk%3A6969","udp%3A%2F%2Fexodus.desync.com%3A6969"],"infoHash":"031dc8305c14c16ce364dc476f22b76fc563ca58","infoHashBuffer":{"type":"Buffer","data":[3,29,200,48,92,20,193,108,227,100,220,71,111,34,183,111,197,99,202,88]},"announce":[],"urlList":[]}}